<?xml version="1.0" encoding="UTF-8"?>
<svg id="Layer_2" data-name="Layer 2" xmlns="http://www.w3.org/2000/svg" viewBox="0 0 442.99 446.81">
  <defs>
    <style>
      .cls-1 {
        fill: #34538f;
      }

      .cls-1, .cls-2, .cls-3, .cls-4, .cls-5 {
        stroke-width: 0px;
      }

      .cls-2 {
        fill: #6981b4;
      }

      .cls-3 {
        fill: #22365e;
      }

      .cls-4 {
        fill: #a5bae4;
      }

      .cls-5 {
        fill: #294273;
      }
    </style>
  </defs>
  <g id="Layer_1-2" data-name="Layer 1">
    <path class="cls-1" d="m.05,329.86c1.86-1.18,1.38-3.34,1.68-4.93,4.43-24.21,17.69-42.58,37.32-56.7,3.75-2.69,7.99-4.7,12.05-6.94,1.3-.72,2.95-1.03,2.79-3-.4-5.14,1.15-10.24.23-15.4-1.01-5.66.57-10.37,4.96-14.33,4.44-4.01,8.42-8.54,12.8-12.63,3.14-2.93,2.63-5.28-.31-7.86-4.61-4.04-9.07-8.25-13.68-12.29-4.7-4.11-5-7.19-.47-11.63,4.49-4.4,9.1-8.71,13.95-12.7,3.61-2.97,3.21-5.13-.13-7.91-4.59-3.83-8.89-8-13.36-11.97-4.8-4.26-5.07-7.11-.55-11.5,4.52-4.4,9.15-8.69,13.97-12.76,3.43-2.9,3.21-5.25.01-8.05-4.49-3.93-8.81-8.07-13.26-12.06-4.83-4.33-5.1-7.78-.29-12.03,8.8-7.8,17.86-15.31,26.68-23.1,3.49-3.08,6.57-2.62,9.62.32,2.47,2.38,5.36,4.43,6.8,7.72v157.03c0,1.33,0,2.66.01,3.99,0,1.62.47,3.16,2.19,3.46,2.02.36,3.6-.39,3.78-2.79.07-6.15.2-12.31.2-18.46.02-44.11,0-88.22.05-132.33,0-1.51-1.02-3.7.94-4.46,1.83-.71,2.83,1.29,3.94,2.46,4.08,4.36,9.38,7.5,12.58,12.72-.07.66-.21,1.32-.21,1.98-.01,50.45.02,100.91-.08,151.36,0,4.12,1.75,6.18,5.51,6.99,6.52,5.03,13.93,8.76,20.09,14.39,5.54,5.07,10.45,10.61,15.06,16.48.2.79.22,1.7.63,2.36,6.4,10.31,10.09,21.48,11.8,33.51,5.28,37.06-7.84,66.49-37.96,87.66-26.83,18.86-56.26,19.43-86.4,7.97-3.71-1.41-6.82-4.13-10.84-4.77l-.02-.02c-.18-1.34-.99-1.79-2.26-1.59-9.93-8.02-19.03-16.78-26.06-27.6-6.6-10.17-10.72-21.19-12.71-33.07-.16-.95.07-2.03-1.1-2.53v-24.99h.05Zm74.84,78.07c8.57,9.42,22.47,6.97,29.41.18,9.41-9.21,9.67-22.16.83-30.41-5.21-7.75-16.81-9.98-26.16-5.04-13.46,7.12-15.74,26.86-4.07,35.27h-.01Z"/>
    <path class="cls-4" d="m383.9,446.8c-8.68-2.92-17.83-3.32-26.77-4.83-14.39-2.43-28.87-4.26-43.31-6.41-19.19-2.86-38.35-5.88-57.55-8.65-6.22-.9-11.71-3.69-17.38-6-16.32-6.64-32.56-13.47-48.86-20.16-3.7-1.52-4.09-6.56-8.45-7.55-.98-.22.41-2.33.86-3.5,6.38-16.76,10.49-33.92,9.55-52.04-.98-19.12-7.29-36.22-18.35-51.83-6.03-8.51-14.54-14.39-21.45-21.93-1.48-1.62-2.3-2.95-2.29-5.11.09-19.99.11-39.98.13-59.97,0-2.08-.17-4.23,2.97-3.87.23,2.6,2.62,2.3,4.14,2.81,17.44,5.8,34.89,11.58,52.41,17.13,12.77,4.05,25.21,9.15,38.35,12.02,0,28.3.02,56.59.03,84.89,0,34.12.06,68.25-.08,102.37-.02,3.96.98,5.5,5.12,5.85,6.77.58,13.47,1.88,20.19,2.97,35.57,5.74,71.14,11.5,106.71,17.27,1.43.23,2.87,1.14,4.13-.36,15.86-9.37,31.59-18.96,47.66-27.96,4.45-2.5,5.79-5.18,5.78-10.1-.17-58.7-.12-117.4-.08-176.1,0-1.94-.6-3.99.62-5.82,4.77-.77,4.97,2.15,4.97,5.74-.05,61.1-.07,122.2.04,183.3,0,3.87-1.32,5.92-4.61,7.84-16.92,9.86-33.69,19.98-50.5,30.01h-4,.02Z"/>
    <path class="cls-1" d="m302.93.01c6.29,2.42,13.25,2.16,19.48,4.82,2.88,1.23,5.79,2.42,8.68,3.62-.66,1.71-2.3,2.42-3.68,3.2-16.72,9.46-33.54,18.74-50.21,28.29-3.93,2.25-8.65,3.44-11.4,7.53-3.2,1.38-6.46,2.72-9,5.2-13.2,12.88-20.82,28.35-20.88,46.98-.08,24.98.18,49.96.34,74.94,0,1.79-.45,3.68.69,5.34-.18,11.55-2.33,14.38-13.38,18.01-4.89,1.6-9.93,1.56-14.76.61-11.41-2.24-15.67-6.75-15.9-15.75.69-28.28.37-56.64,2.35-84.83,2.14-30.52,12.58-58.05,36.68-78.68,12.06-10.33,26.4-15.76,41.98-18.17,1.06-.16,2.42.31,3.04-1.12h25.99-.02Z"/>
    <path class="cls-2" d="m192.9,182.81c.23,8.99,4.49,13.51,15.9,15.75,4.83.95,9.88,1,14.76-.61,11.05-3.63,13.2-6.46,13.38-18.01,1.67,0,3.34,0,5.01-.02,8.26.98,16.51,2.03,24.77,2.94,26.43,2.88,53.02,4.3,79.22,9.11,0,5.65.18,11.31-.04,16.96-.12,3.02.98,5.08,3.3,6.76,9.27,6.72,19.27,8.28,30.15,4.54,7.2-2.48,12.56-6.09,10.62-14.98-.1-.46.11-.98.17-1.48,1.93.37,3.86.73,5.8,1.1,13.14,3.33,26.29,6.65,39.42,10,.6.15,1.14.52,1.71.78-1.38.57-2.77,1.09-4.13,1.72-17.33,7.95-34.66,15.91-51.99,23.87-7.43-.76-14.85-1.51-22.28-2.28-16.82-1.75-33.65-3.43-50.46-5.27-20.11-2.19-40.2-4.51-60.3-6.78-13.14-2.86-25.58-7.97-38.35-12.02-17.52-5.55-34.97-11.33-52.41-17.13-1.52-.51-3.91-.21-4.14-2.81,13.29-4.05,26.59-8.1,39.88-12.14h.01Z"/>
    <path class="cls-4" d="m42.19,419.66c4.02.65,7.13,3.36,10.84,4.77,30.14,11.46,59.57,10.89,86.4-7.97,30.12-21.17,43.24-50.61,37.96-87.66-1.71-12.02-5.41-23.2-11.8-33.51-.41-.66-.43-1.57-.63-2.36,6.19,4.81,9.12,11.89,11.79,18.72,9.64,24.63,10.82,49.5-.57,73.97-6.11,13.12-15.29,23.93-26.61,33.1-15.37,12.45-33.18,18.37-52.46,18.75-18.87.37-36.84-4.4-52.78-15.19-.91-.62-2.01-1.26-2.13-2.61h0Z"/>
    <path class="cls-4" d="m129.8,262.06c-3.76-.81-5.52-2.87-5.51-6.99.1-50.45.07-100.91.08-151.36,0-.66.13-1.32.21-1.98,3.64,1.76,5.47,4.66,5.47,8.7,0,50.05-.02,100.1-.05,150.15,0,.49-.13.99-.2,1.48Z"/>
    <path class="cls-4" d="m106.87,241.8c-.18,2.39-1.76,3.15-3.78,2.79-1.72-.31-2.18-1.85-2.19-3.46,0-1.33-.01-2.66-.01-3.99V80.11c4.15,1.64,5.27,4.79,5.26,9.07-.09,48.95-.07,97.91-.02,146.86,0,1.92-.73,4,.75,5.76h-.01Z"/>
    <path class="cls-4" d="m39.91,418.05c1.27-.19,2.08.26,2.26,1.59-1.29.23-2.07-.26-2.26-1.59Z"/>
    <path class="cls-4" d="m105.12,377.71c-8.72-3.13-17.07-3.25-24.55,3.14-7.01,6-9.39,14.91-6.46,23.78.35,1.07.52,2.2.78,3.31-11.67-8.41-9.4-28.15,4.07-35.27,9.35-4.94,20.95-2.71,26.16,5.04h0Z"/>
    <path class="cls-5" d="m247.93,226.91c20.1,2.26,40.19,4.58,60.3,6.78,16.81,1.83,33.64,3.52,50.46,5.27,7.42.77,14.85,1.52,22.28,2.28.38,18.93.45,37.89.61,56.81.34,41.58,1.34,83.15,1.34,124.73,0,4.16-.04,8.32.02,12.49.02,1.6-.51,3.39,1.09,4.64-1.26,1.5-2.7.59-4.13.36-35.57-5.77-71.13-11.53-106.71-17.27-6.72-1.08-13.42-2.39-20.19-2.97-4.14-.35-5.14-1.89-5.12-5.85.15-34.12.09-68.24.08-102.37,0-28.3-.02-56.59-.03-84.89h0Z"/>
    <path class="cls-3" d="m384.02,439.89c-1.6-1.25-1.07-3.04-1.09-4.64-.06-4.16-.02-8.32-.02-12.49,0-41.58-.99-83.15-1.34-124.73-.16-18.92-.23-37.88-.61-56.81,17.33-7.96,34.66-15.92,51.99-23.87,1.35-.62,2.75-1.15,4.13-1.72.31,1.42.62,2.85.92,4.27-1.23,1.83-.62,3.88-.62,5.82-.04,58.7-.09,117.4.08,176.1.01,4.92-1.32,7.61-5.78,10.1-16.06,9-31.8,18.59-47.66,27.96h0Z"/>
    <path class="cls-5" d="m390.14,203.76c-.06.49-.27,1.02-.17,1.48,1.94,8.89-3.42,12.51-10.62,14.98-10.88,3.74-20.88,2.18-30.15-4.54-2.32-1.68-3.42-3.74-3.3-6.76.23-5.64.05-11.3.04-16.96.06-5.99.13-11.99.19-17.98,1.08-8.36,1.09-16.73-.03-25.09-.03-16.95.77-33.95-.32-50.83-1.09-16.86-7.96-31.65-21.24-42.88-.42-1.4-1.22-2.22-2.8-1.91l-.15-.13c-3.39-4.67-8.61-6.43-13.71-7.99-14.26-4.36-28.25-1.93-42.09,2.31,2.75-4.09,7.47-5.28,11.4-7.53,16.67-9.55,33.49-18.83,50.21-28.29,1.38-.78,3.02-1.49,3.68-3.2,16.12,6.55,27.85,18.39,38.31,31.75,1.22,1.56,2.42,3.14,3.63,4.71.28,2.57,1.95,4.52,3.05,6.71,8.32,16.51,13.39,33.67,13.3,52.47-.17,33.22.46,66.44.75,99.66l.02.02Z"/>
    <path class="cls-4" d="m390.14,203.76c-.29-33.22-.92-66.44-.75-99.66.09-18.8-4.98-35.96-13.3-52.47-1.1-2.19-2.78-4.14-3.05-6.71,3.67,2.09,5.05,5.94,6.97,9.3,7.39,12.95,11.89,26.95,14.61,41.55.36,1.94.31,3.97.32,5.95.04,24.43.13,48.86.05,73.29-.04,9.97.38,19.91.96,29.85-1.93-.37-3.86-.73-5.8-1.1h-.01Z"/>
    <path class="cls-4" d="m265.81,47.47c13.84-4.24,27.83-6.67,42.09-2.31,5.1,1.56,10.32,3.31,13.71,7.99-10.78-3.35-21.54-6.53-33.08-4.17-9.08,1.86-18.78,2.52-25.93,9.07-13.58,12.44-20.78,28.3-21.46,46.63-.93,25.07.83,50.15.82,75.23-1.67,0-3.34,0-5.01.02-1.14-1.66-.68-3.56-.69-5.34-.16-24.98-.42-49.96-.34-74.94.06-18.63,7.68-34.1,20.88-46.98,2.55-2.48,5.8-3.82,9-5.2h0Z"/>
    <path class="cls-2" d="m346.14,173.98c-.49-8.36-.46-16.73-.03-25.09,1.12,8.36,1.12,16.72.03,25.09Z"/>
    <path class="cls-4" d="m324.56,55.18c-1.34-.04-2.52-.32-2.8-1.91,1.58-.32,2.38.51,2.8,1.91Z"/>
  </g>
</svg>