<?xml version="1.0" encoding="UTF-8"?>
<svg id="Layer_2" data-name="Layer 2" xmlns="http://www.w3.org/2000/svg" viewBox="0 0 92.38 92.38">
  <defs>
    <style>
      .cls-1 {
        fill: #96999c;
      }

      .cls-1, .cls-2, .cls-3 {
        stroke-width: 0px;
      }

      .cls-2 {
        fill: #fff;
      }

      .cls-3 {
        fill: #002d65;
      }
    </style>
  </defs>
  <g id="svg812">
    <g id="g578">
      <path id="path580" class="cls-1" d="m92.38,46.19C92.38,20.68,71.7,0,46.19,0S0,20.68,0,46.19s20.68,46.19,46.19,46.19,46.19-20.68,46.19-46.19m-1.58,0c0,22.73-18.42,41.15-41.15,41.15S8.5,68.92,8.5,46.19,26.92,5.04,49.65,5.04s41.15,18.42,41.15,41.15"/>
    </g>
    <g id="g582">
      <path id="path584" class="cls-3" d="m49.65,87.35c22.73,0,41.15-18.42,41.15-41.15S72.38,5.04,49.65,5.04,8.5,23.46,8.5,46.19s18.42,41.15,41.15,41.15"/>
    </g>
    <g id="g586">
      <path id="path588" class="cls-2" d="m58.74,13.25H24.98c-1.37,1.03-2.67,2.15-3.9,3.34,8.34.19,9.61,2.46,9.61,13.38v35.27c0,9.46-.95,12.42-6.63,13.17,1.65,1.31,3.39,2.49,5.23,3.54h32.66c4.47,0,8.42-.85,11.73-2.35,4.05-2.92,7.56-6.56,10.31-10.73.7-1.93,1.09-4,1.09-6.15,0-8.24-5.27-15.34-14.2-18.09,5.38-3.09,8.47-8.24,8.47-14.2,0-9.5-8.01-17.17-20.61-17.17m-13.74,34.92h10.19c9.85,0,14.54,6.53,14.54,14.31s-4.64,14.22-14.34,14.31c.2,0,.39,0,.6,0h-.8c.07,0,.13,0,.2,0-8.95-.08-10.39-2.07-10.39-12.7v-15.92Zm6.41-29.77c8.59,0,12.6,5.73,12.6,12.37s-4.01,12.25-12.6,12.25h-6.41v-24.62h6.41Z"/>
    </g>
  </g>
</svg>