<?xml version="1.0" encoding="UTF-8"?>
<svg id="Layer_1" data-name="Layer 1" xmlns="http://www.w3.org/2000/svg" viewBox="0 0 444 447">
  <defs>
    <style>
      .cls-1 {
        fill: #fdfefe;
      }

      .cls-1, .cls-2, .cls-3, .cls-4, .cls-5, .cls-6 {
        stroke-width: 0px;
      }

      .cls-2 {
        fill: #34538f;
      }

      .cls-3 {
        fill: #6981b4;
      }

      .cls-4 {
        fill: #22365e;
      }

      .cls-5 {
        fill: #a5bae4;
      }

      .cls-6 {
        fill: #294273;
      }
    </style>
  </defs>
  <path class="cls-1" d="m383.94,446.89c-126.48,0-252.97-.02-379.45.11-3.96,0-4.5-1.13-4.48-4.7.15-29.12.09-58.24.09-87.37,1.17.5.94,1.57,1.1,2.53,1.99,11.88,6.11,22.9,12.71,33.07,7.02,10.83,16.13,19.58,26.06,27.6.19,1.33.97,1.82,2.26,1.59l.02.02c.12,1.34,1.22,1.99,2.13,2.61,15.93,10.8,33.9,15.56,52.78,15.19,19.28-.37,37.09-6.29,52.46-18.75,11.32-9.17,20.5-19.98,26.61-33.1,11.39-24.47,10.22-49.34.57-73.97-2.67-6.83-5.6-13.91-11.79-18.72-4.61-5.86-9.52-11.41-15.06-16.48-6.16-5.63-13.57-9.36-20.09-14.39.07-.49.2-.99.2-1.48.02-50.05.04-100.1.05-150.15,0-4.04-1.82-6.95-5.47-8.7-3.2-5.22-8.51-8.37-12.59-12.72-1.1-1.18-2.1-3.18-3.94-2.46-1.96.76-.93,2.95-.94,4.46-.06,44.11-.04,88.22-.05,132.33,0,6.15-.13,12.31-.2,18.46-1.48-1.75-.74-3.84-.75-5.76-.05-48.95-.07-97.91.02-146.86,0-4.28-1.12-7.43-5.26-9.07-1.45-3.29-4.33-5.34-6.8-7.72-3.05-2.94-6.13-3.4-9.62-.32-8.82,7.78-17.88,15.3-26.68,23.1-4.81,4.26-4.54,7.7.29,12.03,4.45,3.99,8.76,8.12,13.26,12.06,3.2,2.8,3.41,5.16-.01,8.05-4.81,4.07-9.45,8.37-13.97,12.76-4.52,4.39-4.25,7.25.55,11.5,4.47,3.97,8.77,8.14,13.36,11.97,3.34,2.78,3.73,4.94.13,7.91-4.85,3.99-9.46,8.3-13.95,12.7-4.53,4.44-4.23,7.52.47,11.63,4.61,4.04,9.08,8.24,13.68,12.29,2.95,2.58,3.45,4.93.31,7.86-4.38,4.09-8.35,8.61-12.8,12.63-4.39,3.96-5.97,8.67-4.96,14.33.92,5.16-.64,10.26-.23,15.4.15,1.96-1.5,2.28-2.79,3-4.06,2.25-8.31,4.25-12.05,6.94-19.63,14.12-32.9,32.48-37.32,56.7-.29,1.6.18,3.75-1.68,4.93C.09,221.42.11,112.89,0,4.37,0,.83.65,0,4.32,0c90.89.13,181.78.1,272.67.1-.62,1.43-1.98.95-3.04,1.12-15.58,2.41-29.92,7.84-41.98,18.17-24.09,20.63-34.53,48.16-36.68,78.68-1.98,28.19-1.66,56.55-2.35,84.83-13.29,4.05-26.59,8.1-39.88,12.14-3.14-.36-2.97,1.79-2.97,3.86-.03,19.99-.04,39.98-.13,59.97-.01,2.16.81,3.5,2.29,5.11,6.91,7.54,15.43,13.42,21.45,21.93,11.06,15.61,17.36,32.71,18.35,51.83.93,18.12-3.17,35.28-9.55,52.04-.45,1.17-1.85,3.28-.86,3.5,4.36.99,4.74,6.03,8.45,7.55,16.3,6.69,32.53,13.53,48.86,20.16,5.67,2.31,11.15,5.1,17.38,6,19.2,2.77,38.37,5.79,57.55,8.65,14.43,2.15,28.92,3.98,43.31,6.41,8.93,1.51,18.09,1.91,26.77,4.83Z"/>
  <path class="cls-2" d="m.09,329.95c1.86-1.18,1.38-3.34,1.68-4.93,4.43-24.21,17.69-42.58,37.32-56.7,3.75-2.69,7.99-4.7,12.05-6.94,1.3-.72,2.95-1.03,2.79-3-.4-5.14,1.15-10.24.23-15.4-1.01-5.66.57-10.37,4.96-14.33,4.44-4.01,8.42-8.54,12.8-12.63,3.14-2.93,2.63-5.28-.31-7.86-4.61-4.04-9.07-8.25-13.68-12.29-4.7-4.11-5-7.19-.47-11.63,4.49-4.4,9.1-8.71,13.95-12.7,3.61-2.97,3.21-5.13-.13-7.91-4.59-3.83-8.89-8-13.36-11.97-4.8-4.26-5.07-7.11-.55-11.5,4.52-4.4,9.15-8.69,13.97-12.76,3.43-2.9,3.21-5.25.01-8.05-4.49-3.93-8.81-8.07-13.26-12.06-4.83-4.33-5.1-7.78-.29-12.03,8.8-7.8,17.86-15.31,26.68-23.1,3.49-3.08,6.57-2.62,9.62.32,2.47,2.38,5.36,4.43,6.8,7.72,0,52.34,0,104.69,0,157.03,0,1.33,0,2.66.01,3.99,0,1.62.47,3.16,2.19,3.46,2.02.36,3.6-.39,3.78-2.79.07-6.15.2-12.31.2-18.46.02-44.11,0-88.22.05-132.33,0-1.51-1.02-3.7.94-4.46,1.83-.71,2.83,1.29,3.94,2.46,4.08,4.36,9.38,7.5,12.58,12.72-.07.66-.21,1.32-.21,1.98-.01,50.45.02,100.91-.08,151.36,0,4.12,1.75,6.18,5.51,6.99,6.52,5.03,13.93,8.76,20.09,14.39,5.54,5.07,10.45,10.61,15.06,16.48.2.79.22,1.7.63,2.36,6.4,10.31,10.09,21.48,11.8,33.51,5.28,37.06-7.84,66.49-37.96,87.66-26.83,18.86-56.26,19.43-86.4,7.97-3.71-1.41-6.82-4.13-10.84-4.77,0,0-.02-.02-.02-.02-.18-1.34-.99-1.79-2.26-1.59-9.93-8.02-19.03-16.78-26.06-27.6-6.6-10.17-10.72-21.19-12.71-33.07-.16-.95.07-2.03-1.1-2.53v-24.99Zm74.84,78.07c8.57,9.42,22.47,6.97,29.41.18,9.41-9.21,9.67-22.16.83-30.41-5.21-7.75-16.81-9.98-26.16-5.04-13.46,7.12-15.74,26.86-4.07,35.27Z"/>
  <path class="cls-5" d="m383.94,446.89c-8.68-2.92-17.83-3.32-26.77-4.83-14.39-2.43-28.87-4.26-43.31-6.41-19.19-2.86-38.35-5.88-57.55-8.65-6.22-.9-11.71-3.69-17.38-6-16.32-6.64-32.56-13.47-48.86-20.16-3.7-1.52-4.09-6.56-8.45-7.55-.98-.22.41-2.33.86-3.5,6.38-16.76,10.49-33.92,9.55-52.04-.98-19.12-7.29-36.22-18.35-51.83-6.03-8.51-14.54-14.39-21.45-21.93-1.48-1.62-2.3-2.95-2.29-5.11.09-19.99.11-39.98.13-59.97,0-2.08-.17-4.23,2.97-3.87.23,2.6,2.62,2.3,4.14,2.81,17.44,5.8,34.89,11.58,52.41,17.13,12.77,4.05,25.21,9.15,38.35,12.02,0,28.3.02,56.59.03,84.89,0,34.12.06,68.25-.08,102.37-.02,3.96.98,5.5,5.12,5.85,6.77.58,13.47,1.88,20.19,2.97,35.57,5.74,71.14,11.5,106.71,17.27,1.43.23,2.87,1.14,4.13-.36,15.86-9.37,31.59-18.96,47.66-27.96,4.45-2.5,5.79-5.18,5.78-10.1-.17-58.7-.12-117.4-.08-176.1,0-1.94-.6-3.99.62-5.82,4.77-.77,4.97,2.15,4.97,5.74-.05,61.1-.07,122.2.04,183.3,0,3.87-1.32,5.92-4.61,7.84-16.92,9.86-33.69,19.98-50.5,30.01h-4Z"/>
  <path class="cls-1" d="m387.94,446.89c16.82-10.03,33.58-20.15,50.5-30.01,3.29-1.91,4.61-3.97,4.61-7.84-.12-61.1-.1-122.2-.04-183.3,0-3.59-.2-6.51-4.97-5.74-.31-1.42-.62-2.85-.92-4.27-.57-.27-1.12-.63-1.71-.78-13.14-3.35-26.28-6.67-39.42-10-.57-9.94-.99-19.88-.96-29.85.09-24.43,0-48.86-.05-73.29,0-1.99.05-4.02-.32-5.95-2.72-14.6-7.22-28.6-14.61-41.55-1.92-3.36-3.31-7.21-6.97-9.3-1.21-1.57-2.4-3.15-3.63-4.71-10.47-13.36-22.2-25.2-38.31-31.75-2.9-1.21-5.8-2.39-8.68-3.62-6.24-2.66-13.19-2.4-19.48-4.82,45.82,0,91.63.04,137.45-.08,2.98,0,3.58.6,3.58,3.58-.09,146.6-.09,293.19,0,439.79,0,2.98-.59,3.62-3.58,3.59-17.49-.18-34.99-.09-52.48-.09Z"/>
  <path class="cls-2" d="m302.97.1c6.29,2.42,13.25,2.16,19.48,4.82,2.88,1.23,5.79,2.42,8.68,3.62-.66,1.71-2.3,2.42-3.68,3.2-16.72,9.46-33.54,18.74-50.21,28.29-3.93,2.25-8.65,3.44-11.4,7.53-3.2,1.38-6.46,2.72-9,5.2-13.2,12.88-20.82,28.35-20.88,46.98-.08,24.98.18,49.96.34,74.94.01,1.79-.45,3.68.69,5.34-.18,11.55-2.33,14.38-13.38,18.01-4.89,1.6-9.93,1.56-14.76.61-11.41-2.24-15.67-6.75-15.9-15.75.69-28.28.37-56.64,2.35-84.83,2.14-30.52,12.58-58.05,36.68-78.68,12.06-10.33,26.4-15.76,41.98-18.17,1.06-.16,2.42.31,3.04-1.12h25.99Z"/>
  <path class="cls-3" d="m192.94,182.9c.23,8.99,4.49,13.51,15.9,15.75,4.83.95,9.88,1,14.76-.61,11.05-3.63,13.2-6.46,13.38-18.01,1.67,0,3.34-.01,5.01-.02,8.26.98,16.51,2.03,24.77,2.94,26.43,2.88,53.02,4.3,79.22,9.11,0,5.65.18,11.31-.04,16.96-.12,3.02.98,5.08,3.3,6.76,9.27,6.72,19.27,8.28,30.15,4.54,7.2-2.48,12.56-6.09,10.62-14.98-.1-.46.11-.98.17-1.48,1.93.37,3.86.73,5.8,1.1,13.14,3.33,26.29,6.65,39.42,10,.6.15,1.14.52,1.71.78-1.38.57-2.77,1.09-4.13,1.72-17.33,7.95-34.66,15.91-51.99,23.87-7.43-.76-14.85-1.51-22.28-2.28-16.82-1.75-33.65-3.43-50.46-5.27-20.11-2.19-40.2-4.51-60.3-6.78-13.14-2.86-25.58-7.97-38.35-12.02-17.52-5.55-34.97-11.33-52.41-17.13-1.52-.51-3.91-.21-4.14-2.81,13.29-4.05,26.59-8.1,39.88-12.14Z"/>
  <path class="cls-5" d="m42.23,419.75c4.02.65,7.13,3.36,10.84,4.77,30.14,11.46,59.57,10.89,86.4-7.97,30.12-21.17,43.24-50.61,37.96-87.66-1.71-12.02-5.41-23.2-11.8-33.51-.41-.66-.43-1.57-.63-2.36,6.19,4.81,9.12,11.89,11.79,18.72,9.64,24.63,10.82,49.5-.57,73.97-6.11,13.12-15.29,23.93-26.61,33.1-15.37,12.45-33.18,18.37-52.46,18.75-18.87.37-36.84-4.4-52.78-15.19-.91-.62-2.01-1.26-2.13-2.61Z"/>
  <path class="cls-5" d="m129.84,262.15c-3.76-.81-5.52-2.87-5.51-6.99.1-50.45.07-100.91.08-151.36,0-.66.13-1.32.21-1.98,3.64,1.76,5.47,4.66,5.47,8.7-.01,50.05-.02,100.1-.05,150.15,0,.49-.13.99-.2,1.48Z"/>
  <path class="cls-5" d="m106.91,241.89c-.18,2.39-1.76,3.15-3.78,2.79-1.72-.31-2.18-1.85-2.19-3.46,0-1.33-.01-2.66-.01-3.99,0-52.34,0-104.69,0-157.03,4.15,1.64,5.27,4.79,5.26,9.07-.09,48.95-.07,97.91-.02,146.86,0,1.92-.73,4,.75,5.76Z"/>
  <path class="cls-5" d="m39.95,418.14c1.27-.19,2.08.26,2.26,1.59-1.29.23-2.07-.26-2.26-1.59Z"/>
  <path class="cls-1" d="m105.16,377.8c8.84,8.25,8.59,21.19-.83,30.41-6.94,6.79-20.84,9.24-29.4-.18-.25-1.1-.42-2.24-.78-3.31-2.93-8.86-.55-17.77,6.46-23.78,7.48-6.4,15.83-6.27,24.55-3.14Z"/>
  <path class="cls-5" d="m105.16,377.8c-8.72-3.13-17.07-3.25-24.55,3.14-7.01,6-9.39,14.91-6.46,23.78.35,1.07.52,2.2.78,3.31-11.67-8.41-9.4-28.15,4.07-35.27,9.35-4.94,20.95-2.71,26.16,5.04Z"/>
  <path class="cls-6" d="m247.97,227c20.1,2.26,40.19,4.58,60.3,6.78,16.81,1.83,33.64,3.52,50.46,5.27,7.42.77,14.85,1.52,22.28,2.28.38,18.93.45,37.89.61,56.81.34,41.58,1.34,83.15,1.34,124.73,0,4.16-.04,8.32.02,12.49.02,1.6-.51,3.39,1.09,4.64-1.26,1.5-2.7.59-4.13.36-35.57-5.77-71.13-11.53-106.71-17.27-6.72-1.08-13.42-2.39-20.19-2.97-4.14-.35-5.14-1.89-5.12-5.85.15-34.12.09-68.24.08-102.37,0-28.3-.02-56.59-.03-84.89Z"/>
  <path class="cls-4" d="m384.06,439.98c-1.6-1.25-1.07-3.04-1.09-4.64-.06-4.16-.02-8.32-.02-12.49,0-41.58-.99-83.15-1.34-124.73-.16-18.92-.23-37.88-.61-56.81,17.33-7.96,34.66-15.92,51.99-23.87,1.35-.62,2.75-1.15,4.13-1.72.31,1.42.62,2.85.92,4.27-1.23,1.83-.62,3.88-.62,5.82-.04,58.7-.09,117.4.08,176.1.01,4.92-1.32,7.61-5.78,10.1-16.06,9-31.8,18.59-47.66,27.96Z"/>
  <path class="cls-6" d="m390.18,203.85c-.06.49-.27,1.02-.17,1.48,1.94,8.89-3.42,12.51-10.62,14.98-10.88,3.74-20.88,2.18-30.15-4.54-2.32-1.68-3.42-3.74-3.3-6.76.23-5.64.05-11.3.04-16.96.06-5.99.13-11.99.19-17.98,1.08-8.36,1.09-16.73-.03-25.09-.03-16.95.77-33.95-.32-50.83-1.09-16.86-7.96-31.65-21.24-42.88-.42-1.4-1.22-2.22-2.8-1.91l-.15-.13c-3.39-4.67-8.61-6.43-13.71-7.99-14.26-4.36-28.25-1.93-42.09,2.31,2.75-4.09,7.47-5.28,11.4-7.53,16.67-9.55,33.49-18.83,50.21-28.29,1.38-.78,3.02-1.49,3.68-3.2,16.12,6.55,27.85,18.39,38.31,31.75,1.22,1.56,2.42,3.14,3.63,4.71.28,2.57,1.95,4.52,3.05,6.71,8.32,16.51,13.39,33.67,13.3,52.47-.17,33.22.46,66.44.75,99.66Z"/>
  <path class="cls-5" d="m390.18,203.85c-.29-33.22-.92-66.44-.75-99.66.09-18.8-4.98-35.96-13.3-52.47-1.1-2.19-2.78-4.14-3.05-6.71,3.67,2.09,5.05,5.94,6.97,9.3,7.39,12.95,11.89,26.95,14.61,41.55.36,1.94.31,3.97.32,5.95.04,24.43.13,48.86.05,73.29-.04,9.97.38,19.91.96,29.85-1.93-.37-3.86-.73-5.8-1.1Z"/>
  <path class="cls-5" d="m265.85,47.56c13.84-4.24,27.83-6.67,42.09-2.31,5.1,1.56,10.32,3.31,13.71,7.99-10.78-3.35-21.54-6.53-33.08-4.17-9.08,1.86-18.78,2.52-25.93,9.07-13.58,12.44-20.78,28.3-21.46,46.63-.93,25.07.83,50.15.82,75.23-1.67,0-3.34.01-5.01.02-1.14-1.66-.68-3.56-.69-5.34-.16-24.98-.42-49.96-.34-74.94.06-18.63,7.68-34.1,20.88-46.98,2.55-2.48,5.8-3.82,9-5.2Z"/>
  <path class="cls-1" d="m242,180.01c0-25.08-1.75-50.16-.82-75.23.68-18.33,7.88-34.19,21.46-46.63,7.15-6.55,16.85-7.21,25.93-9.07,11.54-2.36,22.31.82,33.08,4.17,0,0,.15.13.15.13.28,1.59,1.46,1.87,2.8,1.91,13.28,11.22,20.15,26.01,21.24,42.88,1.09,16.88.29,33.88.32,50.83-.43,8.36-.46,16.73.03,25.09-.06,5.99-.13,11.99-.19,17.98-26.2-4.81-52.8-6.22-79.22-9.11-8.27-.9-16.51-1.95-24.77-2.94Z"/>
  <path class="cls-3" d="m346.18,174.07c-.49-8.36-.46-16.73-.03-25.09,1.12,8.36,1.12,16.72.03,25.09Z"/>
  <path class="cls-5" d="m324.6,55.27c-1.34-.04-2.52-.32-2.8-1.91,1.58-.32,2.38.51,2.8,1.91Z"/>
</svg>